# xmcd
#
# Track frame offsets: 
#        150
#        14720
#        29437
#        42795
#        57328
#        70240
#        83354
#        96295
#        109418
#        125001
#        139839
#        155927
#        171543
#        187095
#        201374
#        215864
#        231213
#        246996
#        261076
#        272942
#        284756
#        298870
#
# Disc length: 4176 seconds
#
# Revision: 1
# Processed by: cddbd v1.5.2PL0 Copyright (c) Steve Scherf et al.
# Submitted via: ExactAudioCopy v1.0b3
#
DISCID=73104e16
DTITLE=Various Artist - Hokum Blues and Rags
DYEAR=1992
DGENRE=Blues
TTITLE0=Pretty Mama Blues - Joe Linthecome
TTITLE1=Humming Blues - Joe Linthecome
TTITLE2=Sweet Miss Stella Blues - Rufus and Ben Quillian (Blue Harmony B
TTITLE2=oys)
TTITLE3=Jerking The Load - Rufus and Ben Quillian (Blue Harmony Boys)
TTITLE4=Take It Out Too Deep - Rufus and Ben Quillian (Blue Harmony Boys
TTITLE4=)
TTITLE5=Ragged But Right - Rufus and Ben Quillian (Blue Harmony Boys)
TTITLE6=All In Down and Out - Rufus and Ben Quillian (Blue Harmony Boys)
TTITLE7=Good Feeling Blues - Rufus and Ben Quillian (Blue Harmony Boys)
TTITLE8=Keep It Clean - Rufus and Ben Quillian (Blue Harmony Boys)
TTITLE9=Good Right On - Rufus and Ben Quillian (Blue Harmony Boys)
TTITLE10=Working It Slow - Rufus and Ben Quillian (Blue Harmony Boys)
TTITLE11=I Got Everything - Rufus and Ben Quillian (Blue Harmony Boys)
TTITLE12=Satisfaction Blues - Rufus and Ben Quillian (Blue Harmony Boys)
TTITLE13=It'S Dirty But Good - Rufus and Ben Quillian (Blue Harmony Boys
TTITLE13=)
TTITLE14=Holy Roll - Rufus and Ben Quillian (Blue Harmony Boys)
TTITLE15=Workin' It Fast - Rufus and Ben Quillian (Blue Harmony Boys)
TTITLE16=Shove It Up In There - Rufus and Ben Quillian (Blue Harmony Boy
TTITLE16=s)
TTITLE17=Loose Me From This Woman - Rufus and Ben Quillian (Blue Harmony
TTITLE17=Boys)
TTITLE18=Prat and George Blues - Part 1 - Pratt and George
TTITLE19=Prat and George Blues - Part 2 - Pratt and George
TTITLE20=1931 Depression Blues - The Three Stripped Gears
TTITLE21=Black Bottom Strut - The Three Stripped Gears
EXTD=submitted by william hale
EXTT0=
EXTT1=
EXTT2=
EXTT3=
EXTT4=
EXTT5=
EXTT6=
EXTT7=
EXTT8=
EXTT9=
EXTT10=
EXTT11=
EXTT12=
EXTT13=
EXTT14=
EXTT15=
EXTT16=
EXTT17=
EXTT18=
EXTT19=
EXTT20=
EXTT21=
PLAYORDER=
